<svg width="25" height="25" viewBox="0 0 25 25" fill="none" xmlns="http://www.w3.org/2000/svg">
<path fill-rule="evenodd" clip-rule="evenodd" d="M13.7586 4.00598C13.2404 4 12.6591 4 12 4C9.20435 4 7.80653 4 6.7039 4.45672C5.23373 5.06569 4.06569 6.23373 3.45672 7.7039C3 8.80653 3 10.2044 3 13V16C3 18.8284 3 20.2426 3.87868 21.1213C4.75736 22 6.17157 22 9 22H12C14.7956 22 16.1935 22 17.2961 21.5433C18.7663 20.9343 19.9343 19.7663 20.5433 18.2961C21 17.1935 21 15.7956 21 13C21 12.3409 21 11.7596 20.994 11.2414C20.464 11.7133 19.7655 12 19 12C17.3431 12 16 10.6569 16 9C14.3431 9 13 7.65685 13 6C13 5.23453 13.2867 4.53602 13.7586 4.00598ZM9 9.99966C8.44772 9.99966 8 10.4474 8 10.9997C8 11.5519 8.44772 11.9997 9 11.9997H15C15.5523 11.9997 16 11.5519 16 10.9997C16 10.4474 15.5523 9.99966 15 9.99966H9ZM9 13.9997C8.44772 13.9997 8 14.4474 8 14.9997C8 15.5519 8.44772 15.9997 9 15.9997H12C12.5523 15.9997 13 15.5519 13 14.9997C13 14.4474 12.5523 13.9997 12 13.9997H9Z" fill="black"/>
<path d="M20 9L20 1M16 5H24" stroke="black" stroke-width="2" stroke-linecap="round" stroke-linejoin="round"/>
</svg>
