<svg width="24" height="24" viewBox="0 0 24 24" fill="none" xmlns="http://www.w3.org/2000/svg">
<circle cx="12" cy="9" r="7" fill="#7E869E" fill-opacity="0.25"/>
<path d="M11 14V9.75C11 9.05964 10.4404 8.5 9.75 8.5V8.5C9.05964 8.5 8.5 9.05964 8.5 9.75V9.75C8.5 10.4404 9.05964 11 9.75 11H14.25C14.9404 11 15.5 10.4404 15.5 9.75V9.75C15.5 9.05964 14.9404 8.5 14.25 8.5V8.5C13.5596 8.5 13 9.05964 13 9.75V14" stroke="#222222" stroke-linecap="round"/>
<path fill-rule="evenodd" clip-rule="evenodd" d="M15 16.5642C15 16.454 14.885 16.3812 14.784 16.4251C13.9307 16.7953 12.9893 17.0005 12 17.0005C11.0107 17.0005 10.0693 16.7953 9.21605 16.4251C9.11496 16.3812 9 16.454 9 16.5642V18.5005C9 19.8812 10.1193 21.0005 11.5 21.0005H12.5C13.8807 21.0005 15 19.8812 15 18.5005V16.5642Z" fill="#222222"/>
</svg>