<svg width="30" height="30" viewBox="0 0 30 30" fill="none" xmlns="http://www.w3.org/2000/svg">
<g filter="url(#filter0_d_1_4545)">
<path d="M7.45067 13.9082L14.4033 20.4395C14.6428 20.6644 14.7625 20.7769 14.9037 20.8046C14.9673 20.8171 15.0327 20.8171 15.0963 20.8046C15.2375 20.7769 15.3572 20.6644 15.5967 20.4395L22.5493 13.9082C24.5055 12.0706 24.743 9.0466 23.0978 6.92607L22.7885 6.52734C20.8203 3.99058 16.8696 4.41601 15.4867 7.31365C15.2913 7.72296 14.7087 7.72296 14.5133 7.31365C13.1304 4.41601 9.17972 3.99058 7.21154 6.52735L6.90219 6.92607C5.25695 9.0466 5.4945 12.0706 7.45067 13.9082Z" fill="#EB4747" stroke="#EB4747" stroke-width="2"/>
</g>
<defs>
<filter id="filter0_d_1_4545" x="-1" y="0" width="32" height="32" filterUnits="userSpaceOnUse" color-interpolation-filters="sRGB">
<feFlood flood-opacity="0" result="BackgroundImageFix"/>
<feColorMatrix in="SourceAlpha" type="matrix" values="0 0 0 0 0 0 0 0 0 0 0 0 0 0 0 0 0 0 127 0" result="hardAlpha"/>
<feOffset dy="4"/>
<feGaussianBlur stdDeviation="2"/>
<feComposite in2="hardAlpha" operator="out"/>
<feColorMatrix type="matrix" values="0 0 0 0 0 0 0 0 0 0 0 0 0 0 0 0 0 0 0.25 0"/>
<feBlend mode="normal" in2="BackgroundImageFix" result="effect1_dropShadow_1_4545"/>
<feBlend mode="normal" in="SourceGraphic" in2="effect1_dropShadow_1_4545" result="shape"/>
</filter>
</defs>
</svg>
