<svg width="28" height="27" viewBox="0 0 28 27" fill="none" xmlns="http://www.w3.org/2000/svg">
<path fill-rule="evenodd" clip-rule="evenodd" d="M21.0439 6.18237C20.665 6.24948 20.1276 6.42537 19.2672 6.71144L11.465 9.30552C10.2354 9.71436 9.3672 10.0037 8.75481 10.2585C8.45166 10.3846 8.24646 10.4881 8.10917 10.5749C7.99267 10.6486 7.9569 10.6904 7.95413 10.6935C7.72818 11.0305 7.72818 11.4706 7.95413 11.8075C7.9569 11.8106 7.99267 11.8525 8.10917 11.9261C8.24646 12.0129 8.45166 12.1164 8.75481 12.2426C9.3672 12.4973 10.2354 12.7867 11.465 13.1955C11.4931 13.2048 11.5209 13.2141 11.5485 13.2232C11.9527 13.3571 12.3082 13.475 12.6211 13.673C12.9949 13.9096 13.3117 14.226 13.5489 14.5994C13.7475 14.912 13.8659 15.2676 14.0005 15.6717C14.0097 15.6993 14.019 15.7272 14.0284 15.7553C14.4405 16.9883 14.732 17.8587 14.9888 18.4723C15.1159 18.7761 15.2203 18.9815 15.3077 19.1188C15.382 19.2355 15.4242 19.2711 15.4274 19.2738C15.7624 19.4961 16.1979 19.4961 16.5329 19.2738C16.536 19.2711 16.5782 19.2356 16.6526 19.1189C16.7399 18.9817 16.8442 18.7765 16.9712 18.473C17.2278 17.8599 17.5191 16.9903 17.9309 15.7582L20.5312 7.97732C20.8186 7.11737 20.9953 6.58028 21.063 6.20142C21.0644 6.19354 21.0657 6.18586 21.067 6.1784C21.0595 6.17965 21.0518 6.18097 21.0439 6.18237ZM21.3029 6.15945C21.3027 6.15964 21.2994 6.15936 21.2937 6.15809C21.3003 6.15863 21.3031 6.15927 21.3029 6.15945ZM21.0876 5.95172C21.0864 5.94597 21.0861 5.94268 21.0863 5.94247C21.0865 5.94227 21.0871 5.94514 21.0876 5.95172ZM20.6952 4.21301C21.2462 4.11542 22.0008 4.08681 22.5804 4.66731C23.16 5.24782 23.1302 6.0023 23.0318 6.55322C22.9351 7.09457 22.7081 7.7735 22.452 8.53958L22.428 8.61124L19.8278 16.3921L19.8137 16.4342C19.4192 17.6147 19.1049 18.5553 18.8161 19.2452C18.5446 19.894 18.2066 20.5612 17.6459 20.9355C16.6374 21.6088 15.3228 21.6088 14.3144 20.9355C13.7535 20.5611 13.4155 19.8935 13.1439 19.2444C12.855 18.5541 12.5404 17.6128 12.1456 16.4313L12.1315 16.3892C11.9528 15.8545 11.9108 15.7507 11.8607 15.6717C11.7816 15.5472 11.676 15.4418 11.5514 15.3629C11.4724 15.3129 11.3686 15.2711 10.834 15.0934L10.7922 15.0794C9.61373 14.6876 8.67515 14.3756 7.9866 14.0891C7.33951 13.8199 6.67361 13.4851 6.29831 12.9292C5.61345 11.9149 5.61345 10.5862 6.29831 9.57181C6.67361 9.01595 7.33951 8.68109 7.9866 8.41189C8.67515 8.12544 9.61373 7.81339 10.7922 7.42159L10.834 7.40767L18.6362 4.81359L18.7079 4.78977C19.4744 4.53484 20.1537 4.30891 20.6952 4.21301Z" fill="#33363F"/>
</svg>