<svg width="25" height="25" viewBox="0 0 25 25" fill="none" xmlns="http://www.w3.org/2000/svg">
<circle cx="12.4211" cy="12.0146" r="10" transform="rotate(-0.0683728 12.4211 12.0146)" stroke="#33363F" stroke-width="2" stroke-linecap="round"/>
<circle cx="9.41867" cy="10.0183" r="1.25" transform="rotate(-0.0683728 9.41867 10.0183)" fill="#33363F" stroke="#33363F" stroke-width="0.5" stroke-linecap="round"/>
<circle cx="15.4187" cy="10.0105" r="1.25" transform="rotate(-0.0683728 15.4187 10.0105)" fill="#33363F" stroke="#33363F" stroke-width="0.5" stroke-linecap="round"/>
<path fill-rule="evenodd" clip-rule="evenodd" d="M9.05354 15.0189C8.77376 15.0192 8.63388 15.0194 8.55937 15.1263C8.48487 15.2331 8.52828 15.3513 8.6151 15.5877C9.1329 16.9976 10.6449 18.017 12.4282 18.0149C14.2116 18.0127 15.7211 16.9898 16.2356 15.5786C16.3218 15.342 16.365 15.2237 16.2902 15.117C16.2154 15.0103 16.0755 15.0105 15.7958 15.0109L9.05354 15.0189Z" fill="#33363F"/>
</svg>
