<svg width="25" height="25" viewBox="0 0 25 25" fill="none" xmlns="http://www.w3.org/2000/svg">
<circle cx="12.0925" cy="12.0923" r="10" transform="rotate(-0.442854 12.0925 12.0923)" stroke="#33363F" stroke-width="2" stroke-linecap="round"/>
<path d="M8.00652 16.3681C8.49586 15.9377 9.14264 15.6244 9.84062 15.4171C10.5465 15.2074 11.3297 15.0984 12.1155 15.0923C12.9014 15.0862 13.6862 15.1831 14.3952 15.3818C15.0963 15.5784 15.7478 15.8816 16.2438 16.3045" stroke="#33363F" stroke-width="2" stroke-linecap="round"/>
<mask id="path-3-outside-1_1_6540" maskUnits="userSpaceOnUse" x="7.06155" y="8.09986" width="4.02307" height="3.03083" fill="black">
<rect fill="white" x="7.06155" y="8.09986" width="4.02307" height="3.03083"/>
<path d="M9.56921 9.11142C9.80948 9.10957 9.92962 9.10864 10.0032 9.23052C10.0768 9.35241 10.0347 9.43092 9.95048 9.58793C9.90584 9.67117 9.84924 9.74839 9.78177 9.81691C9.59569 10.0059 9.34216 10.1132 9.07695 10.1153C8.81174 10.1173 8.55658 10.0139 8.3676 9.82784C8.29908 9.76037 8.2413 9.68404 8.19538 9.60149C8.10876 9.4458 8.06545 9.36796 8.13714 9.24495C8.20883 9.12194 8.32896 9.12101 8.56924 9.11915L9.06922 9.11529L9.56921 9.11142Z"/>
</mask>
<path d="M9.56921 9.11142C9.80948 9.10957 9.92962 9.10864 10.0032 9.23052C10.0768 9.35241 10.0347 9.43092 9.95048 9.58793C9.90584 9.67117 9.84924 9.74839 9.78177 9.81691C9.59569 10.0059 9.34216 10.1132 9.07695 10.1153C8.81174 10.1173 8.55658 10.0139 8.3676 9.82784C8.29908 9.76037 8.2413 9.68404 8.19538 9.60149C8.10876 9.4458 8.06545 9.36796 8.13714 9.24495C8.20883 9.12194 8.32896 9.12101 8.56924 9.11915L9.06922 9.11529L9.56921 9.11142Z" fill="#33363F"/>
<path d="M9.56921 9.11142C9.80948 9.10957 9.92962 9.10864 10.0032 9.23052C10.0768 9.35241 10.0347 9.43092 9.95048 9.58793C9.90584 9.67117 9.84924 9.74839 9.78177 9.81691C9.59569 10.0059 9.34216 10.1132 9.07695 10.1153C8.81174 10.1173 8.55658 10.0139 8.3676 9.82784C8.29908 9.76037 8.2413 9.68404 8.19538 9.60149C8.10876 9.4458 8.06545 9.36796 8.13714 9.24495C8.20883 9.12194 8.32896 9.12101 8.56924 9.11915L9.06922 9.11529L9.56921 9.11142Z" stroke="#33363F" stroke-linecap="round" mask="url(#path-3-outside-1_1_6540)"/>
<mask id="path-4-outside-2_1_6540" maskUnits="userSpaceOnUse" x="13.0616" y="8.05298" width="4.02307" height="3.03083" fill="black">
<rect fill="white" x="13.0616" y="8.05298" width="4.02307" height="3.03083"/>
<path d="M15.5692 9.06455C15.8095 9.06269 15.9296 9.06176 16.0032 9.18365C16.0768 9.30554 16.0347 9.38404 15.9505 9.54105C15.9058 9.62429 15.8492 9.70151 15.7818 9.77003C15.5957 9.95901 15.3422 10.0663 15.077 10.0684C14.8117 10.0704 14.5566 9.96705 14.3676 9.78096C14.2991 9.7135 14.2413 9.63716 14.1954 9.55462C14.1088 9.39893 14.0654 9.32108 14.1371 9.19807C14.2088 9.07506 14.329 9.07413 14.5692 9.07228L15.0692 9.06841L15.5692 9.06455Z"/>
</mask>
<path d="M15.5692 9.06455C15.8095 9.06269 15.9296 9.06176 16.0032 9.18365C16.0768 9.30554 16.0347 9.38404 15.9505 9.54105C15.9058 9.62429 15.8492 9.70151 15.7818 9.77003C15.5957 9.95901 15.3422 10.0663 15.077 10.0684C14.8117 10.0704 14.5566 9.96705 14.3676 9.78096C14.2991 9.7135 14.2413 9.63716 14.1954 9.55462C14.1088 9.39893 14.0654 9.32108 14.1371 9.19807C14.2088 9.07506 14.329 9.07413 14.5692 9.07228L15.0692 9.06841L15.5692 9.06455Z" fill="#33363F"/>
<path d="M15.5692 9.06455C15.8095 9.06269 15.9296 9.06176 16.0032 9.18365C16.0768 9.30554 16.0347 9.38404 15.9505 9.54105C15.9058 9.62429 15.8492 9.70151 15.7818 9.77003C15.5957 9.95901 15.3422 10.0663 15.077 10.0684C14.8117 10.0704 14.5566 9.96705 14.3676 9.78096C14.2991 9.7135 14.2413 9.63716 14.1954 9.55462C14.1088 9.39893 14.0654 9.32108 14.1371 9.19807C14.2088 9.07506 14.329 9.07413 14.5692 9.07228L15.0692 9.06841L15.5692 9.06455Z" stroke="#33363F" stroke-linecap="round" mask="url(#path-4-outside-2_1_6540)"/>
</svg>
