<svg width="24" height="24" viewBox="0 0 24 24" fill="none" xmlns="http://www.w3.org/2000/svg">
<path d="M16 8V7C16 4.79086 14.2091 3 12 3V3C9.79086 3 8 4.79086 8 7V8" stroke="#FFC947" stroke-width="2" stroke-linecap="round"/>
<path fill-rule="evenodd" clip-rule="evenodd" d="M5.87868 7.87868C5 8.75736 5 10.1716 5 13V14C5 16.8089 5 18.2134 5.67412 19.2223C5.96596 19.659 6.34096 20.034 6.77772 20.3259C7.78661 21 9.19108 21 12 21C14.8089 21 16.2134 21 17.2223 20.3259C17.659 20.034 18.034 19.659 18.3259 19.2223C19 18.2134 19 16.8089 19 14V13C19 10.1716 19 8.75736 18.1213 7.87868C17.2426 7 15.8284 7 13 7H11C8.17157 7 6.75736 7 5.87868 7.87868ZM12.1134 14.2329C12.2209 14.1039 12.3333 13.863 12.3333 13.5333C12.3333 13.2036 12.2209 12.9628 12.1134 12.8338C12.0587 12.7682 12.0193 12.7438 12 12.7354C11.9806 12.7438 11.9412 12.7682 11.8865 12.8338C11.779 12.9628 11.6666 13.2036 11.6666 13.5333C11.6666 13.863 11.779 14.1039 11.8865 14.2329C11.9412 14.2985 11.9806 14.3229 12 14.3312C12.0193 14.3229 12.0587 14.2985 12.1134 14.2329ZM11.9864 14.3351C11.9864 14.3348 11.9889 14.3339 11.9941 14.3335C11.9891 14.3352 11.9865 14.3354 11.9864 14.3351ZM12.0059 14.3335C12.0111 14.3339 12.0135 14.3348 12.0135 14.3351C12.0134 14.3354 12.0108 14.3352 12.0059 14.3335ZM12.0135 12.7316C12.0135 12.7319 12.0111 12.7327 12.0059 12.7331C12.0108 12.7314 12.0134 12.7312 12.0135 12.7316ZM11.9941 12.7331C11.9889 12.7327 11.9864 12.7319 11.9864 12.7316C11.9865 12.7312 11.9891 12.7314 11.9941 12.7331ZM14.3333 13.5333C14.3333 14.6503 13.7883 15.6145 13 16.0639V18.2H11V16.0639C10.2117 15.6145 9.66663 14.6503 9.66663 13.5333C9.66663 11.9869 10.7113 10.7333 12 10.7333C13.2886 10.7333 14.3333 11.9869 14.3333 13.5333Z" fill="#FFC947"/>
</svg>
