<svg width="25" height="25" viewBox="0 0 25 25" fill="none" xmlns="http://www.w3.org/2000/svg">
<path d="M6.72024 3.53442L7.32587 2.91359C7.71152 2.51826 8.34463 2.5104 8.73997 2.89606L11.3576 5.44959C11.753 5.83524 11.7608 6.46835 11.3752 6.86369L9.6051 8.67819C9.30995 8.98075 9.24152 9.43824 9.43522 9.81393C10.555 11.9857 12.349 13.7357 14.5479 14.8013C14.9282 14.9857 15.3839 14.9059 15.679 14.6033L17.4491 12.7888C17.8347 12.3935 18.4679 12.3856 18.8632 12.7713L21.4808 15.3248C21.8762 15.7105 21.884 16.3436 21.4984 16.7389L20.8928 17.3598C18.8077 19.4971 15.4684 19.7761 13.0576 18.0143L11.8381 17.1231C10.0785 15.8371 8.51055 14.3076 7.18139 12.5804L6.26017 11.3834C4.43915 9.01704 4.63523 5.67179 6.72024 3.53442Z" fill="#FFC947"/>
</svg>
