<svg width="34" height="34" viewBox="0 0 34 34" fill="none" xmlns="http://www.w3.org/2000/svg">
<path fill-rule="evenodd" clip-rule="evenodd" d="M15.0799 14.7063C15.0645 14.3707 15.0569 14.203 14.9825 14.0888C14.9173 13.9888 14.8185 13.9153 14.7038 13.8819C14.5731 13.8437 14.4103 13.8848 14.0846 13.9672L6.83123 15.8009L6.83122 15.8009C6.24986 15.9479 5.95918 16.0214 5.85259 16.171C5.76009 16.3009 5.73509 16.4671 5.7853 16.6185C5.84315 16.7929 6.09935 16.9486 6.61177 17.2601L12.0254 20.5509C12.1203 20.6085 12.1677 20.6373 12.2068 20.6746C12.2415 20.7077 12.2713 20.7456 12.2952 20.7871C12.3221 20.8339 12.3389 20.8868 12.3725 20.9926L14.2875 27.0316C14.4687 27.6032 14.5594 27.889 14.7151 27.9866C14.8503 28.0712 15.0177 28.0863 15.1658 28.0271C15.3364 27.959 15.4767 27.694 15.7572 27.164L19.2565 20.5513C19.4137 20.2544 19.4922 20.1059 19.4861 19.9699C19.4807 19.8505 19.4328 19.7371 19.351 19.65C19.2577 19.5508 19.0965 19.5036 18.7741 19.4093L15.9329 18.5778C15.5228 18.4578 15.2343 18.0905 15.2148 17.6636L15.0799 14.7063ZM17.0623 13.2144C17.0344 13.2214 17.0153 13.2471 17.0167 13.2758L17.1541 16.2881C17.1635 16.4935 17.1682 16.5962 17.2064 16.6822C17.2401 16.7582 17.2922 16.8246 17.358 16.8753C17.4326 16.9328 17.5313 16.9617 17.7286 17.0194L20.6226 17.8664C20.6502 17.8744 20.6797 17.862 20.6931 17.8366L23.2358 13.0318C23.5024 12.5279 23.6357 12.2759 23.5991 12.0996C23.5673 11.9464 23.4656 11.8169 23.3243 11.7497C23.1616 11.6724 22.8853 11.7422 22.3326 11.882L17.0623 13.2144Z" fill="white"/>
</svg>
